<svg width="44" height="44" viewBox="0 0 44 44" fill="none" xmlns="http://www.w3.org/2000/svg">
<path d="M44 22C44 34.1 34.1 44 22 44C9.9 44 0 34.1 0 22C0 9.9 9.9 0 22 0C34.1 0 44 9.9 44 22Z" fill="black"/>
<path d="M12.1251 13.0469C10.2535 15.2335 9.0411 17.7858 9.01536 20.8265L22.4262 33.6195L35.7862 20.7735C35.7483 17.733 34.4914 15.1854 32.6115 13.0063C32.5561 13.0594 29.1011 16.4908 27.8086 17.7338C26.5161 18.9767 23.3744 22.0744 22.4052 23.0066C22.4052 23.0066 12.1807 13.0998 12.1251 13.0469Z" fill="#2FB8FF" stroke="white"/>
<circle cx="22" cy="22" r="20" stroke="white" stroke-width="4"/>
</svg>
